<svg id="Layer_1" data-name="Layer 1" xmlns="http://www.w3.org/2000/svg" viewBox="0 0 596.54 166.08"><defs><style>.cls-1{fill:#231f20;}</style></defs><path class="cls-1" d="M102.34,95.39c-2.5,0-3.27,2.86-3.66,7.16-1.12,13.6-4.35,16.39-8.86,16.39-5.93,0-8.06-8.69-8.77-16.37,11.48-3.49,16.62-10.86,16.62-23.78,0-13.89-4.76-21.85-13.06-21.85C75,56.94,69.76,71.53,69.76,98a66.31,66.31,0,0,0,.9,11.57c-2.06,8-5.33,12.18-7.52,12.18-.33,0-1,0-1-2.88,0-3.93.15-12.59.3-21s.3-17.31.3-21.36c0-8.65-.95-16.64-7.85-16.64-5.15,0-8.62,5-14.91,33.66l.1-21.31c3.55-1.45,4.32-3.47,4.32-5,0-2.77-2.88-2.77-4.11-2.77h-.2l.14-29.42c0-21.46-3.63-23.94-6.35-23.94-3.32,0-3.77,6-4.12,15.86-.31,10.51-.45,18.17-.45,35.8v1.7c-4.56,0-8.92,0-13.27.12C15.44,48.41,12.7,46.5,10.68,46.5c-3.11,0-4.09,6-4.95,18.62C.77,65.88,0,68,0,69.25c0,2.41,1.88,2.82,4.12,3.07l1.19.15c-.56,9.75-1,23.09-1,30.91,0,12,1.64,19.47,9.78,19.47,9,0,14-9,14-13.65,0-3.07-1.46-3.52-2.33-3.52-1.51,0-2.14,1.45-2.88,3.13a23.79,23.79,0,0,1-1.23,2.49c-1.76,3-3.4,3.77-4.09,3.77-.46,0-1.54-1.37-1.54-14.07,0-2.36,0-5.54,0-9.3,0-5.21.09-11.54.09-18.42,4.43.24,8.87.37,13.23.38,0,10.66,0,24.91.3,39.88.14,8.06.2,11.4,3.52,11.4,5,0,7-6,8.26-11.31,6.1-25.93,9.24-39.18,10.72-42.71.16,1.49.16,4.06.16,5.49,0,3.36-.18,12.38-.37,21.93s-.38,19.51-.38,23.23c0,5.17,2.59,8.14,7.1,8.14,6,0,11.34-4.13,14.79-11.44,2.91,5.62,7.56,8.46,13.83,8.46,8.2,0,18-4.52,18-26C105.27,98.72,105.27,95.39,102.34,95.39Zm-18-32.31c1.13,0,4.38,3.52,4.38,19.14,0,8-2.3,12.22-8.11,14.52-.09-1.59-.2-4.24-.2-6.92C80.38,72.08,81.7,63.08,84.31,63.08Z"/><path class="cls-1" d="M158.39,50.42c4.68,0,7.09-8.43,7.09-12,0-4.57-3.52-8.74-7.39-8.74-2.81,0-4.42,4.71-4.42,12.91C153.67,49.05,156.24,50.42,158.39,50.42Z"/><path class="cls-1" d="M219.5,48c4.09,0,7.39-6.65,7.39-12.17,0-5-2.73-8.44-6.8-8.44-2.84,0-4.41,1.68-4.41,4.72,0,4.29.17,7.37.3,9.32C216.23,45.05,216.66,48,219.5,48Z"/><path class="cls-1" d="M321.75,51.46c4.77,0,6.05-6.52,6.05-10.38,0-4.86-4.46-7.54-7.55-7.54-2.35,0-5.16,1.62-5.16,9.33C315.09,48.8,318.44,51.46,321.75,51.46Z"/><path class="cls-1" d="M420,122.67a7.15,7.15,0,0,0-1.5.26,88.39,88.39,0,0,1-8.75,1.53c-.31-7.51-.84-26.23-.84-34.34,0-25.71,1.11-34,1.64-37.94a24.07,24.07,0,0,0,.3-3.2,2.35,2.35,0,0,0-2.48-2.63c-3.72,0-7.17,8.62-9.12,18.2-1.56-4.36-4.09-6.57-7.57-6.57-7.9,0-16.34,10.91-16.34,41.53,0,1.34,0,2.66.14,4-3.7,9.16-6.22,9.88-6.9,9.88-.91,0-1-2.29-1-2.74,0-2.12.31-8.5.6-13.19.15-2.36.38-5,.62-7.68.43-4.94.87-10,.87-13.56,0-10.57-5.21-15.3-10.38-15.3-6.1,0-9.42,2.91-13.18,18.11.18-6.25.31-9.23.39-11,0-1,.07-1.61.07-2.14,0-3.42-1.19-5.16-3.52-5.16s-8,3.84-8,12.91V95.78l0,2.48c-5,16.48-8.48,17-8.86,17-.88,0-1.55-.5-1.55-6.77,0-4.42.39-11.88.76-19.1s.73-14.16.73-18.31c0-3.11,0-8.89-4.71-8.89-2.45,0-6.63,2.06-6.8,9.77-.13,7.53-.25,23-.29,33-2.39,9.88-6.11,15-8.57,15-.33,0-1,0-1-2.88,0-3.48.39-9.67.8-16.23.49-7.9,1-16.07,1-21.63,0-17.71-6.42-19.62-9.18-19.62-5.68,0-9.44,4.48-17.59,43.37-1.05-17.16-1.75-31-2.13-42.06a71.87,71.87,0,0,0,11.76-39.08C289.49,8.17,285.56,0,279,0,268.25,0,267.4,20.52,267.4,47.34c0,5.83,0,11.35.14,17a98.77,98.77,0,0,1-10.15,9.82l-8.15,6.54c-3.61-5.24-4.31-8.23-4.31-11.77a7.07,7.07,0,0,1,2.2-5.6c4.48,5.82,6.57,7.78,9.48,7.78,2.14,0,4.41-1.91,4.41-5.46,0-3.81-3.35-9.18-10.82-9.18-8.22,0-13.95,6.47-13.95,15.74,0,4,.84,8.07,4.86,14.79-7,5.47-10.08,10.89-10.08,17.56a25.26,25.26,0,0,0,.33,4.06c-3,6.49-5.15,8.22-5.9,8.22-1,0-1-4.85-1-6.92,0-4.42.46-13.7.91-22.67s.88-17.6.88-21.74c0-3.27-.27-6.21-3.52-6.21-6,0-8.66,12.87-8.74,41.72-3.41,9.52-6.8,13-8.26,13-.47,0-.8-.25-.8-3.48,0-4.31.48-9.52,1-15,.54-6,1.11-12.26,1.11-17.9,0-4.12,0-16.64-9-16.64-4.74,0-9.75,3.14-14.59,23.75l-.07-9.79c0-9.81-.4-14.11-4.27-14.11-2.93,0-6.35,4-6.35,15.15V95.64a137.67,137.67,0,0,0-1.2,16.69,11.31,11.31,0,0,0,.12,1.47c-1.75,5.09-4.14,8.12-6.44,8.12-.61,0-1.55,0-1.55-3.63v-8.35c0-6.29.28-19.42.49-30,.14-6.86.26-12.53.26-14.31,0-2.12,0-7.09-3.67-7.09-2.09,0-4.92,2.85-6.43,9.1-.47,0-1,0-1.54.07-1.63.09-4.1.22-9.17.22h-3.57c5.48-6.52,8.58-14.4,8.58-22,0-17.67-6.72-26.92-13.36-26.92-5.63,0-8.74,7.12-8.74,20.06,0,8.36.6,15.33,1.18,22.07.19,2.21.38,4.35.53,6.47-3.07.14-7.22,1.65-7.22,4.7,0,3.21,3.69,4.19,7.6,4.61,0,7.38-.72,15.25-1.48,23.58-.88,9.76-1.8,19.85-1.8,30.84,0,19,.87,34.67,11.57,34.67,8.66,0,14.7-11.69,14.7-28.41,0-18.2-3.79-32.95-14-54.32.13-1.59.13-3.17.13-4.71V77.39h1.84c5.89,0,10.55-.59,13.65-1.71,0,.85,0,1.74,0,2.66,0,6.37.29,27.65.59,38.2.27,7.77,1.71,12.28,8.29,12.28,5,0,9.46-3,12.6-8.57a8.71,8.71,0,0,0,5.74,2.46c2.93,0,4.41-2.64,4.41-7.85,0-5.85-.24-10.58-.29-11.52,6.94-28.93,9.64-33.25,10.63-33.25.42,0,1.4.64,1.4,6.61,0,3.2-.56,8.35-1.15,13.8-.72,6.6-1.53,14.07-1.53,19.74,0,8.3,2.82,12.17,8.88,12.17,5.46,0,9.42-5.17,11.9-9.85,1.53,10.24,5.46,12.53,8.67,12.53,4.85,0,8.12-4.55,10.47-9.2a17.93,17.93,0,0,0,16.06,9.5c9.56,0,15.74-6.12,15.74-15.6,0-7.8-3.45-12.5-10.12-20.87-.92-1-1.74-2.06-2.42-2.94l7.8-6.46a70.18,70.18,0,0,0,6.89-6.43c.28,7.49.73,15.08,1.21,23.06l.19,3.27c1,17.6,3.53,24.77,8.73,24.77,3.13,0,3.93-3.9,4.94-8.85.19-1,.41-2,.64-3.06,5.75-25.47,9.65-41.47,11.11-42.49.24,0,1.4,1.1,1.4,6.32,0,5.57-.41,12.71-.84,20.26-.47,8.08-.95,16.43-.95,23.41,0,5.17,2.59,8.14,7.1,8.14,5.48,0,10.46-3.49,14-9.69,1.18,3.57,3.49,5.37,6.88,5.37,6.72,0,10.78-6.07,13.56-12.29.79,6.35,2.62,11.4,7.6,11.4,3.82,0,3.82-5.11,3.82-7.85,0-6-.25-14.71-.29-16,3.66-14.79,7.05-28.08,8.4-28.79,1.38,0,3.33,2,3.33,6.61,0,4.41-.5,12.7-.89,18.55-.47,6-.6,11.46-.6,13.5,0,9.44,2.65,13.66,8.59,13.66,3.84,0,8-3.57,11.37-9.69,2,5.89,5.53,9.09,10.24,9.09,5,0,8.84-3.34,11.69-17.43,0,5.61,0,15.71.25,21.41-7.54.95-19.24,1.67-24.07,1.95-6.9.35-9.72,3.18-9.72,9.78,0,11.85,11.88,26.17,26.63,26.17,12.7,0,18.12-6.8,18.12-22.75,0-4.3,0-7.09-.1-9.77,7-1.25,11.58-3.92,11.58-6.77A1.68,1.68,0,0,0,420,122.67ZM393.44,157.4c-10.53,0-21.23-12.52-21.23-21.52,0-1.58.34-2,3.4-2.15,6-.29,17.16-1,23.89-1.53.28,6.62.4,12,.4,17.84C399.9,156.3,397.82,157.4,393.44,157.4Zm-4-42.63c-1,0-3.33-4.59-3.33-15.41,0-29,3.9-35.53,5.27-35.53h0c.41.23,1,2.13,1.67,5.62.26,1.44,1,5.51,4.47,6.31C393.53,108,390.91,114.77,389.41,114.77ZM282.75,24.09a59.46,59.46,0,0,1-5.5,25.56c-.28-8-.28-14.08-.28-18,0-20.12,1.17-24.84,2.14-25.25v0C279.84,6.44,282.75,9.58,282.75,24.09Zm-29.42,94c-7.43,0-12.43-7.74-12.43-15,0-4.32,1.18-7.24,4.14-10l.75,1,.66.89c8.11,11.1,11.41,16,11.41,19.9C257.86,116.74,256,118.05,253.33,118.05ZM137,63.27c-.18-2.72-.39-5.5-.59-8.28-.64-8.62-1.29-17.53-1.29-24.64,0-3.25.15-5.17.45-5.71,1.37.28,6.67,6.16,6.67,22.11A29.34,29.34,0,0,1,137,63.27Zm.86,96.66c-2.74,0-2.74-19.07-2.74-28.23,0-9.93.71-19.53,1.41-28.81.16-2.19.33-4.35.48-6.49,5.66,15.82,7.91,28,7.91,42.16C144.88,151.8,140.76,159.93,137.82,159.93Z"/><path class="cls-1" d="M561.81,63.59a2.57,2.57,0,0,0-2.63-2.78,8.61,8.61,0,0,0-2.15.33,35.47,35.47,0,0,1-7.59,1V51.66c0-18.93-1-22.3-3.67-22.3-3,0-4.41,4-6.65,27.44l-.37,5.35c-2.67,0-5.24-.1-7.57-.17-1.66,0-3.19-.1-4.55-.12,0-5-.45-9.69-4.56-9.69-4.91,0-7.4,12.47-7.4,37.05,0,3.82.14,7.28.41,10.56-3.38,10.44-6.85,14.24-8.36,14.24-.89,0-1.25-.37-1.25-9.74s.44-21.6.45-21.76c0-11.22-2.07-23.2-7.85-23.2-3.42,0-3.9,2.9-4.63,7.28l-.07.39c-2.95,19.15-7.12,44.78-9,46.29-1.46,0-3-2-3-6.47,0-8,.89-18.1,1.6-26.18.44-5,.79-8.94.79-10.93,0-5.65-2-8.89-5.61-8.89-5,0-6,6.23-6.35,11.64-.13,1.9-.24,4.13-.34,6.54a33.09,33.09,0,0,1-4,2,94.85,94.85,0,0,1-11.83,4.23c-10-8.51-10.75-11.28-10.75-14.81,0-3.88,3-5.27,5.87-5.27a11.63,11.63,0,0,1,3.36.4,51.38,51.38,0,0,0-.47,7c0,7.59,2,9.19,3.67,9.19,3.22,0,6.8-4.88,6.8-11.87S459.45,59,451.12,59c-8.7,0-14.55,5.85-14.55,14.55,0,4.89,1.08,8.67,6.78,15.05-6.68,2.91-10.06,8.17-10.06,15.66,0,14.3,9.4,20.81,18.13,20.81,9.89,0,16-7.46,16-19.47,0-5.28-2.33-10.5-6.94-15.55a70.89,70.89,0,0,0,10.64-4c-.19,6.74-.31,14.4-.31,20,0,11.93,5.75,16.19,11.12,16.19,6.13,0,8.76-4.87,12.93-29.61-.22,10-.35,17.11-.35,17.44,0,10.8,4.67,13.06,8.59,13.06,6.72,0,11.16-7.66,13.53-13.33,2,7.56,5.54,11.25,10.76,11.25,4,0,7.44-2.28,10.33-6.78.89,5.4,3,9.76,9.2,9.76,7.79,0,12.61-8.87,12.61-17.09,0-3.36-1.51-4.56-2.92-4.56-1.79,0-2.14,1.45-3.64,7.57-1.47,5.89-2.58,6.92-2.61,7-.74-.67-1.11-5.66-1.11-14.82,0-12.73.05-23.74.14-32.74C556.9,69.12,561.81,67.92,561.81,63.59Zm-23.5,5.69c-.59,10.6-1,23.18-1.13,30.68-2.37,9.43-5,14.21-7.81,14.21-1.62,0-3.48-1.66-3.48-14.66,0-4.35.2-11.57.39-18.54.13-4.67.26-9.31.33-13.14A86,86,0,0,0,538.31,69.28ZM453.8,118.34c-5.91,0-10-8.82-10-16.74,0-4.52,1.25-6.65,4.59-7.82h.06c7.27,7.15,11,11.84,11,17.36C459.37,114.61,457.63,118.34,453.8,118.34Z"/><path class="cls-1" d="M521.62,45.2c4.8,0,6.5-7.2,6.5-13.36,0-4.51-1.68-6.8-5-6.8s-7,3.95-7,12.61C516.16,44.83,520.71,45.2,521.62,45.2Z"/><path class="cls-1" d="M593.61,95.39c-2.5,0-3.27,2.86-3.66,7.16-1.12,13.6-4.35,16.39-8.86,16.39-5.93,0-8.05-8.69-8.77-16.37,11.48-3.49,16.62-10.86,16.62-23.78,0-13.89-4.76-21.85-13.06-21.85C566.3,56.94,561,71.53,561,98c0,19,5.9,28.71,17.53,28.71,8.2,0,18-4.52,18-26C596.54,98.72,596.54,95.39,593.61,95.39Zm-18-32.31c1.14,0,4.38,3.52,4.38,19.14,0,8-2.3,12.21-8.11,14.52-.09-1.59-.2-4.24-.2-6.92C571.65,72.08,573,63.08,575.58,63.08Z"/></svg>