<?xml version="1.0" encoding="utf-8"?>
<!-- Generator: Adobe Illustrator 25.0.0, SVG Export Plug-In . SVG Version: 6.00 Build 0)  -->
<svg version="1.2" baseProfile="tiny" id="Layer_1" xmlns="http://www.w3.org/2000/svg" xmlns:xlink="http://www.w3.org/1999/xlink"
	 x="0px" y="0px" viewBox="0 0 596.5 166.1" overflow="visible" xml:space="preserve">
<path fill="#E6E6DC" d="M102.3,95.4c-2.5,0-3.3,2.9-3.7,7.2c-1.1,13.6-4.3,16.4-8.9,16.4c-5.9,0-8.1-8.7-8.8-16.4
	c11.5-3.5,16.6-10.9,16.6-23.8c0-13.9-4.8-21.8-13.1-21.8C75,56.9,69.8,71.5,69.8,98c0,3.9,0.3,7.7,0.9,11.6
	c-2.1,8-5.3,12.2-7.5,12.2c-0.3,0-1,0-1-2.9c0-3.9,0.2-12.6,0.3-21s0.3-17.3,0.3-21.4c0-8.7-1-16.6-7.8-16.6c-5.2,0-8.6,5-14.9,33.7
	l0.1-21.3c3.5-1.4,4.3-3.5,4.3-5c0-2.8-2.9-2.8-4.1-2.8h-0.2L40.2,35c0-21.5-3.6-23.9-6.3-23.9c-3.3,0-3.8,6-4.1,15.9
	c-0.3,10.5-0.5,18.2-0.5,35.8v1.7c-4.6,0-8.9,0-13.3,0.1c-0.6-16.2-3.3-18.1-5.4-18.1c-3.1,0-4.1,6-4.9,18.6C0.8,65.9,0,68,0,69.3
	c0,2.4,1.9,2.8,4.1,3.1l1.2,0.2c-0.6,9.8-1,23.1-1,30.9c0,12,1.6,19.5,9.8,19.5c9,0,14-9,14-13.7c0-3.1-1.5-3.5-2.3-3.5
	c-1.5,0-2.1,1.4-2.9,3.1c-0.4,0.9-0.8,1.7-1.2,2.5c-1.8,3-3.4,3.8-4.1,3.8c-0.5,0-1.5-1.4-1.5-14.1c0-2.4,0-5.5,0-9.3
	c0-5.2,0.1-11.5,0.1-18.4c4.4,0.2,8.9,0.4,13.2,0.4c0,10.7,0,24.9,0.3,39.9c0.1,8.1,0.2,11.4,3.5,11.4c5,0,7-6,8.3-11.3
	c6.1-25.9,9.2-39.2,10.7-42.7c0.2,1.5,0.2,4.1,0.2,5.5c0,3.4-0.2,12.4-0.4,21.9s-0.4,19.5-0.4,23.2c0,5.2,2.6,8.1,7.1,8.1
	c6,0,11.3-4.1,14.8-11.4c2.9,5.6,7.6,8.5,13.8,8.5c8.2,0,18-4.5,18-26C105.3,98.7,105.3,95.4,102.3,95.4z M84.3,63.1
	c1.1,0,4.4,3.5,4.4,19.1c0,8-2.3,12.2-8.1,14.5c-0.1-1.6-0.2-4.2-0.2-6.9C80.4,72.1,81.7,63.1,84.3,63.1L84.3,63.1z"/>
<path fill="#E6E6DC" d="M158.4,50.4c4.7,0,7.1-8.4,7.1-12c0-4.6-3.5-8.7-7.4-8.7c-2.8,0-4.4,4.7-4.4,12.9
	C153.7,49,156.2,50.4,158.4,50.4z"/>
<path fill="#E6E6DC" d="M219.5,48c4.1,0,7.4-6.7,7.4-12.2c0-5-2.7-8.4-6.8-8.4c-2.8,0-4.4,1.7-4.4,4.7c0,4.3,0.2,7.4,0.3,9.3
	C216.2,45,216.7,48,219.5,48z"/>
<path fill="#E6E6DC" d="M321.8,51.5c4.8,0,6-6.5,6-10.4c0-4.9-4.5-7.5-7.5-7.5c-2.4,0-5.2,1.6-5.2,9.3
	C315.1,48.8,318.4,51.5,321.8,51.5z"/>
<path fill="#E6E6DC" d="M420,122.7c-0.5,0-1,0.1-1.5,0.3c-2.9,0.7-5.8,1.2-8.8,1.5c-0.3-7.5-0.8-26.2-0.8-34.3
	c0-25.7,1.1-34,1.6-37.9c0.2-1.1,0.3-2.1,0.3-3.2c0.2-1.3-0.8-2.5-2-2.6c-0.1,0-0.3,0-0.4,0c-3.7,0-7.2,8.6-9.1,18.2
	c-1.6-4.4-4.1-6.6-7.6-6.6c-7.9,0-16.3,10.9-16.3,41.5c0,1.3,0,2.7,0.1,4c-3.7,9.2-6.2,9.9-6.9,9.9c-0.9,0-1-2.3-1-2.7
	c0-2.1,0.3-8.5,0.6-13.2c0.1-2.4,0.4-5,0.6-7.7c0.4-4.9,0.9-10,0.9-13.6c0-10.6-5.2-15.3-10.4-15.3c-6.1,0-9.4,2.9-13.2,18.1
	c0.2-6.3,0.3-9.2,0.4-11c0-1,0.1-1.6,0.1-2.1c0-3.4-1.2-5.2-3.5-5.2s-8,3.8-8,12.9v22.1v2.5c-5,16.5-8.5,17-8.9,17
	c-0.9,0-1.5-0.5-1.5-6.8c0-4.4,0.4-11.9,0.8-19.1s0.7-14.2,0.7-18.3c0-3.1,0-8.9-4.7-8.9c-2.5,0-6.6,2.1-6.8,9.8
	c-0.1,7.5-0.3,23-0.3,33c-2.4,9.9-6.1,15-8.6,15c-0.3,0-1,0-1-2.9c0-3.5,0.4-9.7,0.8-16.2c0.5-7.9,1-16.1,1-21.6
	c0-17.7-6.4-19.6-9.2-19.6c-5.7,0-9.4,4.5-17.6,43.4c-1-17.2-1.8-31-2.1-42.1c7.6-11.6,11.7-25.2,11.8-39.1C289.5,8.2,285.6,0,279,0
	c-10.8,0-11.6,20.5-11.6,47.3c0,5.8,0,11.4,0.1,17c-3.1,3.5-6.5,6.8-10.1,9.8l-8.1,6.5c-3.6-5.2-4.3-8.2-4.3-11.8
	c-0.1-2.1,0.7-4.2,2.2-5.6c4.5,5.8,6.6,7.8,9.5,7.8c2.1,0,4.4-1.9,4.4-5.5c0-3.8-3.4-9.2-10.8-9.2c-8.2,0-13.9,6.5-13.9,15.7
	c0,4,0.8,8.1,4.9,14.8c-7,5.5-10.1,10.9-10.1,17.6c0,1.4,0.1,2.7,0.3,4.1c-3,6.5-5.1,8.2-5.9,8.2c-1,0-1-4.8-1-6.9
	c0-4.4,0.5-13.7,0.9-22.7s0.9-17.6,0.9-21.7c0-3.3-0.3-6.2-3.5-6.2c-6,0-8.7,12.9-8.7,41.7c-3.4,9.5-6.8,13-8.3,13
	c-0.5,0-0.8-0.3-0.8-3.5c0-4.3,0.5-9.5,1-15c0.5-6,1.1-12.3,1.1-17.9c0-4.1,0-16.6-9-16.6c-4.7,0-9.8,3.1-14.6,23.8l-0.1-9.8
	c0-9.8-0.4-14.1-4.3-14.1c-2.9,0-6.4,4-6.4,15.2v19.6c-0.7,5.5-1.1,11.1-1.2,16.7c0,0.5,0,1,0.1,1.5c-1.8,5.1-4.1,8.1-6.4,8.1
	c-0.6,0-1.6,0-1.6-3.6v-8.3c0-6.3,0.3-19.4,0.5-30c0.1-6.9,0.3-12.5,0.3-14.3c0-2.1,0-7.1-3.7-7.1c-2.1,0-4.9,2.8-6.4,9.1
	c-0.5,0-1,0-1.5,0.1c-1.6,0.1-4.1,0.2-9.2,0.2h-3.6c5.5-6.5,8.6-14.4,8.6-22c0-17.7-6.7-26.9-13.4-26.9c-5.6,0-8.7,7.1-8.7,20.1
	c0,8.4,0.6,15.3,1.2,22.1c0.2,2.2,0.4,4.3,0.5,6.5c-3.1,0.1-7.2,1.7-7.2,4.7c0,3.2,3.7,4.2,7.6,4.6c0,7.4-0.7,15.3-1.5,23.6
	c-0.9,9.8-1.8,19.8-1.8,30.8c0,19,0.9,34.7,11.6,34.7c8.7,0,14.7-11.7,14.7-28.4c0-18.2-3.8-32.9-14-54.3c0.1-1.6,0.1-3.2,0.1-4.7
	v-1.2h1.8c5.9,0,10.6-0.6,13.6-1.7c0,0.8,0,1.7,0,2.7c0,6.4,0.3,27.7,0.6,38.2c0.3,7.8,1.7,12.3,8.3,12.3c5,0,9.5-3,12.6-8.6
	c1.5,1.5,3.6,2.4,5.7,2.5c2.9,0,4.4-2.6,4.4-7.8c0-5.8-0.2-10.6-0.3-11.5c6.9-28.9,9.6-33.3,10.6-33.3c0.4,0,1.4,0.6,1.4,6.6
	c0,3.2-0.6,8.3-1.1,13.8c-0.7,6.6-1.5,14.1-1.5,19.7c0,8.3,2.8,12.2,8.9,12.2c5.5,0,9.4-5.2,11.9-9.8c1.5,10.2,5.5,12.5,8.7,12.5
	c4.9,0,8.1-4.6,10.5-9.2c3.2,5.9,9.4,9.6,16.1,9.5c9.6,0,15.7-6.1,15.7-15.6c0-7.8-3.5-12.5-10.1-20.9c-0.9-1-1.7-2.1-2.4-2.9
	l7.8-6.5c2.4-2,4.7-4.1,6.9-6.4c0.3,7.5,0.7,15.1,1.2,23.1l0.2,3.3c1,17.6,3.5,24.8,8.7,24.8c3.1,0,3.9-3.9,4.9-8.8
	c0.2-1,0.4-2,0.6-3.1c5.8-25.5,9.6-41.5,11.1-42.5c0.2,0,1.4,1.1,1.4,6.3c0,5.6-0.4,12.7-0.8,20.3c-0.5,8.1-1,16.4-1,23.4
	c0,5.2,2.6,8.1,7.1,8.1c5.5,0,10.5-3.5,14-9.7c1.2,3.6,3.5,5.4,6.9,5.4c6.7,0,10.8-6.1,13.6-12.3c0.8,6.3,2.6,11.4,7.6,11.4
	c3.8,0,3.8-5.1,3.8-7.8c0-6-0.3-14.7-0.3-16c3.7-14.8,7-28.1,8.4-28.8c1.4,0,3.3,2,3.3,6.6c0,4.4-0.5,12.7-0.9,18.5
	c-0.5,6-0.6,11.5-0.6,13.5c0,9.4,2.6,13.7,8.6,13.7c3.8,0,8-3.6,11.4-9.7c2,5.9,5.5,9.1,10.2,9.1c5,0,8.8-3.3,11.7-17.4
	c0,5.6,0,15.7,0.3,21.4c-7.5,0.9-19.2,1.7-24.1,1.9c-6.9,0.4-9.7,3.2-9.7,9.8c0,11.9,11.9,26.2,26.6,26.2c12.7,0,18.1-6.8,18.1-22.8
	c0-4.3,0-7.1-0.1-9.8c7-1.3,11.6-3.9,11.6-6.8C421.7,123.5,421,122.7,420,122.7C420,122.7,420,122.7,420,122.7z M393.4,157.4
	c-10.5,0-21.2-12.5-21.2-21.5c0-1.6,0.3-2,3.4-2.1c6-0.3,17.2-1,23.9-1.5c0.3,6.6,0.4,12,0.4,17.8
	C399.9,156.3,397.8,157.4,393.4,157.4z M389.4,114.8c-1,0-3.3-4.6-3.3-15.4c0-29,3.9-35.5,5.3-35.5l0,0c0.4,0.2,1,2.1,1.7,5.6
	c0.3,1.4,1,5.5,4.5,6.3C393.5,108,390.9,114.8,389.4,114.8L389.4,114.8z M282.8,24.1c0.1,8.8-1.8,17.6-5.5,25.6
	c-0.3-8-0.3-14.1-0.3-18c0-20.1,1.2-24.8,2.1-25.3l0,0C279.8,6.4,282.8,9.6,282.8,24.1z M253.3,118.1c-7.4,0-12.4-7.7-12.4-15
	c0-4.3,1.2-7.2,4.1-10l0.8,1l0.7,0.9c8.1,11.1,11.4,16,11.4,19.9C257.9,116.7,256,118.1,253.3,118.1L253.3,118.1z M137,63.3
	c-0.2-2.7-0.4-5.5-0.6-8.3c-0.6-8.6-1.3-17.5-1.3-24.6c0-3.3,0.1-5.2,0.4-5.7c1.4,0.3,6.7,6.2,6.7,22.1
	C142.2,52.7,140.4,58.4,137,63.3z M137.9,159.9c-2.7,0-2.7-19.1-2.7-28.2c0-9.9,0.7-19.5,1.4-28.8c0.2-2.2,0.3-4.3,0.5-6.5
	c5.7,15.8,7.9,28,7.9,42.2C144.9,151.8,140.8,159.9,137.9,159.9L137.9,159.9z"/>
<path fill="#E6E6DC" d="M561.8,63.6c0.1-1.4-0.9-2.7-2.4-2.8c-0.1,0-0.2,0-0.3,0c-0.7,0-1.5,0.1-2.2,0.3c-2.5,0.6-5,0.9-7.6,1V51.7
	c0-18.9-1-22.3-3.7-22.3c-3,0-4.4,4-6.7,27.4l-0.4,5.3c-2.7,0-5.2-0.1-7.6-0.2c-1.7,0-3.2-0.1-4.5-0.1c0-5-0.5-9.7-4.6-9.7
	c-4.9,0-7.4,12.5-7.4,37c0,3.8,0.1,7.3,0.4,10.6c-3.4,10.4-6.9,14.2-8.4,14.2c-0.9,0-1.3-0.4-1.3-9.7s0.4-21.6,0.5-21.8
	c0-11.2-2.1-23.2-7.9-23.2c-3.4,0-3.9,2.9-4.6,7.3l-0.1,0.4c-3,19.2-7.1,44.8-9,46.3c-1.5,0-3-2-3-6.5c0-8,0.9-18.1,1.6-26.2
	c0.4-5,0.8-8.9,0.8-10.9c0-5.7-2-8.9-5.6-8.9c-5,0-6,6.2-6.4,11.6c-0.1,1.9-0.2,4.1-0.3,6.5c-1.3,0.8-2.6,1.4-4,2
	c-3.8,1.7-7.8,3.1-11.8,4.2c-10-8.5-10.8-11.3-10.8-14.8c0-3.9,3-5.3,5.9-5.3c1.1,0,2.3,0.1,3.4,0.4c-0.3,2.3-0.5,4.7-0.5,7
	c0,7.6,2,9.2,3.7,9.2c3.2,0,6.8-4.9,6.8-11.9s-4.7-10.9-13-10.9c-8.7,0-14.5,5.8-14.5,14.6c0,4.9,1.1,8.7,6.8,15.1
	c-6.7,2.9-10.1,8.2-10.1,15.7c0,14.3,9.4,20.8,18.1,20.8c9.9,0,16-7.5,16-19.5c0-5.3-2.3-10.5-6.9-15.6c3.6-1,7.2-2.4,10.6-4
	c-0.2,6.7-0.3,14.4-0.3,20c0,11.9,5.8,16.2,11.1,16.2c6.1,0,8.8-4.9,12.9-29.6c-0.2,10-0.4,17.1-0.4,17.4c0,10.8,4.7,13.1,8.6,13.1
	c6.7,0,11.2-7.7,13.5-13.3c2,7.6,5.5,11.3,10.8,11.3c4,0,7.4-2.3,10.3-6.8c0.9,5.4,3,9.8,9.2,9.8c7.8,0,12.6-8.9,12.6-17.1
	c0-3.4-1.5-4.6-2.9-4.6c-1.8,0-2.1,1.4-3.6,7.6c-1.5,5.9-2.6,6.9-2.6,7c-0.7-0.7-1.1-5.7-1.1-14.8c0-12.7,0-23.7,0.1-32.7
	C556.9,69.1,561.8,67.9,561.8,63.6z M538.3,69.3c-0.6,10.6-1,23.2-1.1,30.7c-2.4,9.4-5,14.2-7.8,14.2c-1.6,0-3.5-1.7-3.5-14.7
	c0-4.3,0.2-11.6,0.4-18.5c0.1-4.7,0.3-9.3,0.3-13.1C530.5,68.6,534.4,69.1,538.3,69.3z M453.8,118.3c-5.9,0-10-8.8-10-16.7
	c0-4.5,1.3-6.7,4.6-7.8h0.1c7.3,7.2,11,11.8,11,17.4C459.4,114.6,457.6,118.3,453.8,118.3z"/>
<path fill="#E6E6DC" d="M521.6,45.2c4.8,0,6.5-7.2,6.5-13.4c0-4.5-1.7-6.8-5-6.8s-7,4-7,12.6C516.2,44.8,520.7,45.2,521.6,45.2z"/>
<path fill="#E6E6DC" d="M593.6,95.4c-2.5,0-3.3,2.9-3.7,7.2c-1.1,13.6-4.3,16.4-8.9,16.4c-5.9,0-8-8.7-8.8-16.4
	c11.5-3.5,16.6-10.9,16.6-23.8c0-13.9-4.8-21.8-13.1-21.8c-9.6,0-14.9,14.6-14.9,41.1c0,19,5.9,28.7,17.5,28.7c8.2,0,18-4.5,18-26
	C596.5,98.7,596.5,95.4,593.6,95.4z M575.6,63.1c1.1,0,4.4,3.5,4.4,19.1c0,8-2.3,12.2-8.1,14.5c-0.1-1.6-0.2-4.2-0.2-6.9
	C571.7,72.1,573,63.1,575.6,63.1L575.6,63.1z"/>
</svg>
